<svg xmlns="http://www.w3.org/2000/svg" xmlns:xlink="http://www.w3.org/1999/xlink" width="500" zoomAndPan="magnify" viewBox="0 0 375 374.999991" height="500" preserveAspectRatio="xMidYMid meet" version="1.0"><defs><g/><clipPath id="d7440b593a"><path d="M 63.527344 163.636719 L 109 163.636719 L 109 211.472656 L 63.527344 211.472656 Z M 63.527344 163.636719 " clip-rule="nonzero"/></clipPath><clipPath id="5243455a9b"><path d="M 89.640625 185.871094 L 69.347656 185.871094 C 68.5625 185.871094 67.992188 185.121094 68.203125 184.363281 L 73.777344 164.511719 C 73.917969 163.996094 74.386719 163.644531 74.917969 163.644531 L 95.210938 163.644531 C 95.996094 163.644531 96.566406 164.394531 96.355469 165.152344 L 90.785156 185.003906 C 90.640625 185.519531 90.171875 185.871094 89.640625 185.871094 Z M 76.460938 200.859375 L 79.328125 190.636719 C 79.542969 189.878906 78.972656 189.125 78.183594 189.125 L 67.753906 189.125 C 67.222656 189.125 66.753906 189.480469 66.609375 189.992188 L 63.742188 200.214844 C 63.53125 200.972656 64.097656 201.726562 64.886719 201.726562 L 75.316406 201.726562 C 75.847656 201.726562 76.316406 201.371094 76.460938 200.859375 Z M 81.738281 189.992188 L 76.167969 209.847656 C 75.957031 210.605469 76.523438 211.355469 77.3125 211.355469 L 97.601562 211.355469 C 98.136719 211.355469 98.601562 211 98.746094 210.488281 L 104.316406 190.636719 C 104.53125 189.878906 103.960938 189.125 103.171875 189.125 L 82.882812 189.125 C 82.351562 189.125 81.882812 189.480469 81.738281 189.992188 Z M 96.0625 174.140625 L 93.195312 184.363281 C 92.980469 185.121094 93.550781 185.871094 94.335938 185.871094 L 104.769531 185.871094 C 105.300781 185.871094 105.769531 185.519531 105.910156 185.003906 L 108.78125 174.785156 C 108.992188 174.027344 108.421875 173.273438 107.636719 173.273438 L 97.207031 173.273438 C 96.671875 173.273438 96.207031 173.628906 96.0625 174.140625 Z M 96.0625 174.140625 " clip-rule="nonzero"/></clipPath><linearGradient x1="114.296403" gradientTransform="matrix(0.0954239, 0, 0, 0.0954239, 63.6972, 163.643616)" y1="-47.634065" x2="358.621806" gradientUnits="userSpaceOnUse" y2="547.633911" id="2df08d4bff"><stop stop-opacity="1" stop-color="rgb(72.499084%, 57.598877%, 83.898926%)" offset="0"/><stop stop-opacity="1" stop-color="rgb(72.499084%, 57.598877%, 83.898926%)" offset="0.0625"/><stop stop-opacity="1" stop-color="rgb(72.463989%, 57.61261%, 83.901978%)" offset="0.09375"/><stop stop-opacity="1" stop-color="rgb(72.244263%, 57.707214%, 83.927917%)" offset="0.109375"/><stop stop-opacity="1" stop-color="rgb(71.873474%, 57.865906%, 83.970642%)" offset="0.125"/><stop stop-opacity="1" stop-color="rgb(71.502686%, 58.023071%, 84.011841%)" offset="0.140625"/><stop stop-opacity="1" stop-color="rgb(71.131897%, 58.181763%, 84.054565%)" offset="0.15625"/><stop stop-opacity="1" stop-color="rgb(70.759583%, 58.340454%, 84.095764%)" offset="0.171875"/><stop stop-opacity="1" stop-color="rgb(70.388794%, 58.49762%, 84.138489%)" offset="0.1875"/><stop stop-opacity="1" stop-color="rgb(70.018005%, 58.656311%, 84.181213%)" offset="0.203125"/><stop stop-opacity="1" stop-color="rgb(69.647217%, 58.813477%, 84.222412%)" offset="0.21875"/><stop stop-opacity="1" stop-color="rgb(69.276428%, 58.972168%, 84.265137%)" offset="0.234375"/><stop stop-opacity="1" stop-color="rgb(68.90564%, 59.130859%, 84.307861%)" offset="0.25"/><stop stop-opacity="1" stop-color="rgb(68.534851%, 59.288025%, 84.34906%)" offset="0.265625"/><stop stop-opacity="1" stop-color="rgb(68.162537%, 59.446716%, 84.391785%)" offset="0.281145"/><stop stop-opacity="1" stop-color="rgb(67.977905%, 59.526062%, 84.413147%)" offset="0.28125"/><stop stop-opacity="1" stop-color="rgb(67.791748%, 59.603882%, 84.434509%)" offset="0.296875"/><stop stop-opacity="1" stop-color="rgb(67.420959%, 59.762573%, 84.475708%)" offset="0.3125"/><stop stop-opacity="1" stop-color="rgb(67.050171%, 59.921265%, 84.518433%)" offset="0.328125"/><stop stop-opacity="1" stop-color="rgb(66.679382%, 60.07843%, 84.559631%)" offset="0.34375"/><stop stop-opacity="1" stop-color="rgb(66.308594%, 60.237122%, 84.602356%)" offset="0.359375"/><stop stop-opacity="1" stop-color="rgb(65.936279%, 60.395813%, 84.645081%)" offset="0.375"/><stop stop-opacity="1" stop-color="rgb(65.565491%, 60.552979%, 84.686279%)" offset="0.390625"/><stop stop-opacity="1" stop-color="rgb(65.194702%, 60.71167%, 84.729004%)" offset="0.40625"/><stop stop-opacity="1" stop-color="rgb(64.823914%, 60.868835%, 84.771729%)" offset="0.421875"/><stop stop-opacity="1" stop-color="rgb(64.453125%, 61.027527%, 84.812927%)" offset="0.4375"/><stop stop-opacity="1" stop-color="rgb(64.082336%, 61.186218%, 84.855652%)" offset="0.453125"/><stop stop-opacity="1" stop-color="rgb(63.711548%, 61.343384%, 84.896851%)" offset="0.46875"/><stop stop-opacity="1" stop-color="rgb(63.339233%, 61.502075%, 84.939575%)" offset="0.484375"/><stop stop-opacity="1" stop-color="rgb(62.968445%, 61.659241%, 84.9823%)" offset="0.5"/><stop stop-opacity="1" stop-color="rgb(62.597656%, 61.817932%, 85.023499%)" offset="0.515625"/><stop stop-opacity="1" stop-color="rgb(62.226868%, 61.976624%, 85.066223%)" offset="0.53125"/><stop stop-opacity="1" stop-color="rgb(61.856079%, 62.133789%, 85.108948%)" offset="0.546875"/><stop stop-opacity="1" stop-color="rgb(61.485291%, 62.29248%, 85.150146%)" offset="0.5625"/><stop stop-opacity="1" stop-color="rgb(61.112976%, 62.451172%, 85.192871%)" offset="0.578125"/><stop stop-opacity="1" stop-color="rgb(60.742188%, 62.608337%, 85.235596%)" offset="0.59375"/><stop stop-opacity="1" stop-color="rgb(60.371399%, 62.767029%, 85.276794%)" offset="0.609375"/><stop stop-opacity="1" stop-color="rgb(60.00061%, 62.924194%, 85.319519%)" offset="0.625"/><stop stop-opacity="1" stop-color="rgb(59.629822%, 63.082886%, 85.360718%)" offset="0.640625"/><stop stop-opacity="1" stop-color="rgb(59.259033%, 63.241577%, 85.403442%)" offset="0.65625"/><stop stop-opacity="1" stop-color="rgb(58.888245%, 63.398743%, 85.446167%)" offset="0.671875"/><stop stop-opacity="1" stop-color="rgb(58.51593%, 63.557434%, 85.487366%)" offset="0.6875"/><stop stop-opacity="1" stop-color="rgb(58.145142%, 63.7146%, 85.53009%)" offset="0.703125"/><stop stop-opacity="1" stop-color="rgb(57.774353%, 63.873291%, 85.572815%)" offset="0.71875"/><stop stop-opacity="1" stop-color="rgb(57.403564%, 64.031982%, 85.614014%)" offset="0.718855"/><stop stop-opacity="1" stop-color="rgb(57.218933%, 64.111328%, 85.635376%)" offset="0.734375"/><stop stop-opacity="1" stop-color="rgb(57.032776%, 64.189148%, 85.656738%)" offset="0.75"/><stop stop-opacity="1" stop-color="rgb(56.661987%, 64.347839%, 85.697937%)" offset="0.765625"/><stop stop-opacity="1" stop-color="rgb(56.289673%, 64.506531%, 85.740662%)" offset="0.78125"/><stop stop-opacity="1" stop-color="rgb(55.918884%, 64.663696%, 85.783386%)" offset="0.796875"/><stop stop-opacity="1" stop-color="rgb(55.548096%, 64.822388%, 85.824585%)" offset="0.8125"/><stop stop-opacity="1" stop-color="rgb(55.177307%, 64.979553%, 85.86731%)" offset="0.828125"/><stop stop-opacity="1" stop-color="rgb(54.945374%, 65.078735%, 85.89325%)" offset="0.84375"/><stop stop-opacity="1" stop-color="rgb(54.899597%, 65.098572%, 85.899353%)" offset="0.875"/><stop stop-opacity="1" stop-color="rgb(54.899597%, 65.098572%, 85.899353%)" offset="1"/></linearGradient><linearGradient x1="8.94274" gradientTransform="matrix(1, 0, -0, 1, -0.00000336583, 0.0000208741)" y1="-11.44321" x2="36.830361" gradientUnits="userSpaceOnUse" y2="16.44331" id="ee074b72ed"><stop stop-opacity="1" stop-color="rgb(72.499084%, 57.598877%, 83.898926%)" offset="0"/><stop stop-opacity="1" stop-color="rgb(72.328186%, 57.672119%, 83.918762%)" offset="0.0625"/><stop stop-opacity="1" stop-color="rgb(72.006226%, 57.809448%, 83.955383%)" offset="0.078125"/><stop stop-opacity="1" stop-color="rgb(71.704102%, 57.937622%, 83.988953%)" offset="0.0896455"/><stop stop-opacity="1" stop-color="rgb(71.55304%, 58.001709%, 84.007263%)" offset="0.09375"/><stop stop-opacity="1" stop-color="rgb(71.401978%, 58.065796%, 84.024048%)" offset="0.109375"/><stop stop-opacity="1" stop-color="rgb(71.099854%, 58.195496%, 84.057617%)" offset="0.125"/><stop stop-opacity="1" stop-color="rgb(70.797729%, 58.323669%, 84.092712%)" offset="0.140625"/><stop stop-opacity="1" stop-color="rgb(70.495605%, 58.451843%, 84.126282%)" offset="0.15625"/><stop stop-opacity="1" stop-color="rgb(70.193481%, 58.581543%, 84.161377%)" offset="0.171875"/><stop stop-opacity="1" stop-color="rgb(69.891357%, 58.709717%, 84.194946%)" offset="0.1875"/><stop stop-opacity="1" stop-color="rgb(69.589233%, 58.839417%, 84.230042%)" offset="0.203125"/><stop stop-opacity="1" stop-color="rgb(69.287109%, 58.96759%, 84.263611%)" offset="0.21875"/><stop stop-opacity="1" stop-color="rgb(68.984985%, 59.095764%, 84.298706%)" offset="0.234375"/><stop stop-opacity="1" stop-color="rgb(68.684387%, 59.225464%, 84.332275%)" offset="0.25"/><stop stop-opacity="1" stop-color="rgb(68.382263%, 59.353638%, 84.367371%)" offset="0.265625"/><stop stop-opacity="1" stop-color="rgb(68.080139%, 59.481812%, 84.40094%)" offset="0.28125"/><stop stop-opacity="1" stop-color="rgb(67.778015%, 59.611511%, 84.436035%)" offset="0.296875"/><stop stop-opacity="1" stop-color="rgb(67.475891%, 59.739685%, 84.469604%)" offset="0.3125"/><stop stop-opacity="1" stop-color="rgb(67.173767%, 59.867859%, 84.5047%)" offset="0.328125"/><stop stop-opacity="1" stop-color="rgb(66.871643%, 59.997559%, 84.538269%)" offset="0.34375"/><stop stop-opacity="1" stop-color="rgb(66.569519%, 60.125732%, 84.573364%)" offset="0.359375"/><stop stop-opacity="1" stop-color="rgb(66.267395%, 60.255432%, 84.606934%)" offset="0.375"/><stop stop-opacity="1" stop-color="rgb(65.965271%, 60.383606%, 84.642029%)" offset="0.390625"/><stop stop-opacity="1" stop-color="rgb(65.663147%, 60.51178%, 84.675598%)" offset="0.40625"/><stop stop-opacity="1" stop-color="rgb(65.361023%, 60.641479%, 84.710693%)" offset="0.421875"/><stop stop-opacity="1" stop-color="rgb(65.058899%, 60.769653%, 84.744263%)" offset="0.4375"/><stop stop-opacity="1" stop-color="rgb(64.756775%, 60.897827%, 84.779358%)" offset="0.453125"/><stop stop-opacity="1" stop-color="rgb(64.454651%, 61.027527%, 84.812927%)" offset="0.46875"/><stop stop-opacity="1" stop-color="rgb(64.152527%, 61.155701%, 84.848022%)" offset="0.484375"/><stop stop-opacity="1" stop-color="rgb(63.850403%, 61.283875%, 84.881592%)" offset="0.5"/><stop stop-opacity="1" stop-color="rgb(63.548279%, 61.413574%, 84.916687%)" offset="0.515625"/><stop stop-opacity="1" stop-color="rgb(63.246155%, 61.541748%, 84.950256%)" offset="0.53125"/><stop stop-opacity="1" stop-color="rgb(62.944031%, 61.671448%, 84.985352%)" offset="0.546875"/><stop stop-opacity="1" stop-color="rgb(62.641907%, 61.799622%, 85.018921%)" offset="0.5625"/><stop stop-opacity="1" stop-color="rgb(62.339783%, 61.927795%, 85.054016%)" offset="0.578125"/><stop stop-opacity="1" stop-color="rgb(62.037659%, 62.057495%, 85.087585%)" offset="0.59375"/><stop stop-opacity="1" stop-color="rgb(61.735535%, 62.185669%, 85.122681%)" offset="0.609375"/><stop stop-opacity="1" stop-color="rgb(61.433411%, 62.313843%, 85.15625%)" offset="0.625"/><stop stop-opacity="1" stop-color="rgb(61.131287%, 62.443542%, 85.191345%)" offset="0.640625"/><stop stop-opacity="1" stop-color="rgb(60.829163%, 62.571716%, 85.224915%)" offset="0.65625"/><stop stop-opacity="1" stop-color="rgb(60.527039%, 62.69989%, 85.26001%)" offset="0.671875"/><stop stop-opacity="1" stop-color="rgb(60.224915%, 62.82959%, 85.293579%)" offset="0.6875"/><stop stop-opacity="1" stop-color="rgb(59.922791%, 62.957764%, 85.328674%)" offset="0.703125"/><stop stop-opacity="1" stop-color="rgb(59.620667%, 63.087463%, 85.362244%)" offset="0.71875"/><stop stop-opacity="1" stop-color="rgb(59.318542%, 63.215637%, 85.397339%)" offset="0.734375"/><stop stop-opacity="1" stop-color="rgb(59.016418%, 63.343811%, 85.430908%)" offset="0.75"/><stop stop-opacity="1" stop-color="rgb(58.714294%, 63.473511%, 85.466003%)" offset="0.765625"/><stop stop-opacity="1" stop-color="rgb(58.41217%, 63.601685%, 85.499573%)" offset="0.78125"/><stop stop-opacity="1" stop-color="rgb(58.110046%, 63.729858%, 85.534668%)" offset="0.796875"/><stop stop-opacity="1" stop-color="rgb(57.807922%, 63.859558%, 85.568237%)" offset="0.8125"/><stop stop-opacity="1" stop-color="rgb(57.505798%, 63.987732%, 85.603333%)" offset="0.828125"/><stop stop-opacity="1" stop-color="rgb(57.203674%, 64.117432%, 85.636902%)" offset="0.84375"/><stop stop-opacity="1" stop-color="rgb(56.90155%, 64.245605%, 85.671997%)" offset="0.859375"/><stop stop-opacity="1" stop-color="rgb(56.599426%, 64.373779%, 85.705566%)" offset="0.875"/><stop stop-opacity="1" stop-color="rgb(56.297302%, 64.503479%, 85.740662%)" offset="0.890625"/><stop stop-opacity="1" stop-color="rgb(55.996704%, 64.631653%, 85.774231%)" offset="0.90625"/><stop stop-opacity="1" stop-color="rgb(55.69458%, 64.759827%, 85.8078%)" offset="0.910354"/><stop stop-opacity="1" stop-color="rgb(55.543518%, 64.825439%, 85.826111%)" offset="0.921875"/><stop stop-opacity="1" stop-color="rgb(55.392456%, 64.889526%, 85.842896%)" offset="0.9375"/><stop stop-opacity="1" stop-color="rgb(55.070496%, 65.02533%, 85.879517%)" offset="1"/></linearGradient></defs><g fill="#000000" fill-opacity="1"><g transform="translate(124.927731, 197.393201)"><g><path d="M 4.640625 0 C 4.234375 0 3.882812 -0.140625 3.59375 -0.421875 C 3.3125 -0.703125 3.171875 -1.050781 3.171875 -1.46875 L 3.171875 -21.328125 C 3.171875 -21.742188 3.3125 -22.097656 3.59375 -22.390625 C 3.882812 -22.691406 4.234375 -22.84375 4.640625 -22.84375 L 12.375 -22.84375 C 14.707031 -22.84375 16.507812 -22.304688 17.78125 -21.234375 C 19.0625 -20.160156 19.703125 -18.722656 19.703125 -16.921875 C 19.703125 -15.648438 19.398438 -14.59375 18.796875 -13.75 C 18.191406 -12.914062 17.421875 -12.289062 16.484375 -11.875 C 17.796875 -11.457031 18.867188 -10.789062 19.703125 -9.875 C 20.546875 -8.957031 20.96875 -7.800781 20.96875 -6.40625 C 20.96875 -4.40625 20.289062 -2.835938 18.9375 -1.703125 C 17.59375 -0.566406 15.46875 0 12.5625 0 Z M 11.578125 -12.953125 C 13.523438 -12.953125 14.890625 -13.28125 15.671875 -13.9375 C 16.453125 -14.59375 16.84375 -15.507812 16.84375 -16.6875 C 16.84375 -17.707031 16.421875 -18.523438 15.578125 -19.140625 C 14.742188 -19.753906 13.597656 -20.0625 12.140625 -20.0625 L 6.15625 -20.0625 L 6.15625 -12.953125 Z M 12.265625 -2.78125 C 14.378906 -2.78125 15.878906 -3.109375 16.765625 -3.765625 C 17.648438 -4.421875 18.09375 -5.347656 18.09375 -6.546875 C 18.09375 -9.035156 16.160156 -10.28125 12.296875 -10.28125 L 6.15625 -10.28125 L 6.15625 -2.78125 Z M 12.265625 -2.78125 "/></g></g></g><g fill="#000000" fill-opacity="1"><g transform="translate(147.598083, 197.393201)"><g><path d="M 6.3125 7.6875 C 5.914062 7.6875 5.582031 7.546875 5.3125 7.265625 C 5.039062 6.984375 4.90625 6.644531 4.90625 6.25 C 4.90625 6.070312 4.9375 5.894531 5 5.71875 L 7.125 0.265625 L 0.984375 -14.71875 C 0.890625 -14.9375 0.84375 -15.144531 0.84375 -15.34375 C 0.84375 -15.757812 0.984375 -16.113281 1.265625 -16.40625 C 1.554688 -16.695312 1.910156 -16.84375 2.328125 -16.84375 C 2.628906 -16.84375 2.90625 -16.753906 3.15625 -16.578125 C 3.40625 -16.410156 3.585938 -16.195312 3.703125 -15.9375 L 8.734375 -3.4375 L 13.875 -15.875 C 14.15625 -16.519531 14.613281 -16.84375 15.25 -16.84375 C 15.664062 -16.84375 16.015625 -16.695312 16.296875 -16.40625 C 16.578125 -16.113281 16.71875 -15.757812 16.71875 -15.34375 C 16.71875 -15.144531 16.6875 -14.957031 16.625 -14.78125 L 7.6875 6.671875 C 7.382812 7.347656 6.925781 7.6875 6.3125 7.6875 Z M 6.3125 7.6875 "/></g></g></g><g fill="#000000" fill-opacity="1"><g transform="translate(165.165155, 197.393201)"><g><path d="M 8.34375 0.328125 C 5.15625 0.328125 3.5625 -1.109375 3.5625 -3.984375 L 3.5625 -14.140625 L 1.25 -14.140625 C 1.070312 -14.140625 0.921875 -14.195312 0.796875 -14.3125 C 0.679688 -14.4375 0.625 -14.582031 0.625 -14.75 C 0.625 -14.96875 0.722656 -15.15625 0.921875 -15.3125 L 5.359375 -19.65625 C 5.554688 -19.851562 5.742188 -19.953125 5.921875 -19.953125 C 6.097656 -19.953125 6.242188 -19.882812 6.359375 -19.75 C 6.484375 -19.625 6.546875 -19.472656 6.546875 -19.296875 L 6.546875 -16.6875 L 10.234375 -16.6875 C 10.609375 -16.6875 10.914062 -16.566406 11.15625 -16.328125 C 11.394531 -16.085938 11.515625 -15.78125 11.515625 -15.40625 C 11.515625 -15.0625 11.394531 -14.765625 11.15625 -14.515625 C 10.914062 -14.265625 10.609375 -14.140625 10.234375 -14.140625 L 6.546875 -14.140625 L 6.546875 -4.25 C 6.546875 -3.40625 6.742188 -2.867188 7.140625 -2.640625 C 7.546875 -2.410156 8.054688 -2.296875 8.671875 -2.296875 C 9.109375 -2.296875 9.546875 -2.359375 9.984375 -2.484375 C 10.066406 -2.503906 10.15625 -2.523438 10.25 -2.546875 C 10.351562 -2.566406 10.484375 -2.578125 10.640625 -2.578125 C 10.941406 -2.578125 11.210938 -2.460938 11.453125 -2.234375 C 11.691406 -2.003906 11.8125 -1.726562 11.8125 -1.40625 C 11.8125 -0.90625 11.5625 -0.523438 11.0625 -0.265625 C 10.207031 0.128906 9.300781 0.328125 8.34375 0.328125 Z M 8.34375 0.328125 "/></g></g></g><g fill="#000000" fill-opacity="1"><g transform="translate(177.661651, 197.393201)"><g><path d="M 10.046875 0.328125 C 7.378906 0.328125 5.300781 -0.425781 3.8125 -1.9375 C 2.320312 -3.457031 1.578125 -5.59375 1.578125 -8.34375 C 1.578125 -9.894531 1.859375 -11.320312 2.421875 -12.625 C 2.984375 -13.9375 3.851562 -14.992188 5.03125 -15.796875 C 6.21875 -16.609375 7.671875 -17.015625 9.390625 -17.015625 C 11.003906 -17.015625 12.398438 -16.632812 13.578125 -15.875 C 14.753906 -15.125 15.644531 -14.125 16.25 -12.875 C 16.863281 -11.625 17.171875 -10.253906 17.171875 -8.765625 C 17.171875 -8.347656 17.035156 -8 16.765625 -7.71875 C 16.492188 -7.4375 16.128906 -7.296875 15.671875 -7.296875 L 4.578125 -7.296875 C 4.753906 -5.765625 5.320312 -4.570312 6.28125 -3.71875 C 7.238281 -2.875 8.582031 -2.453125 10.3125 -2.453125 C 11.226562 -2.453125 12.023438 -2.539062 12.703125 -2.71875 C 13.390625 -2.894531 14.0625 -3.144531 14.71875 -3.46875 C 14.894531 -3.550781 15.09375 -3.59375 15.3125 -3.59375 C 15.65625 -3.59375 15.957031 -3.472656 16.21875 -3.234375 C 16.488281 -2.992188 16.625 -2.691406 16.625 -2.328125 C 16.625 -1.847656 16.335938 -1.441406 15.765625 -1.109375 C 14.921875 -0.628906 14.082031 -0.269531 13.25 -0.03125 C 12.414062 0.207031 11.347656 0.328125 10.046875 0.328125 Z M 14.234375 -9.71875 C 14.171875 -10.789062 13.890625 -11.6875 13.390625 -12.40625 C 12.898438 -13.125 12.296875 -13.648438 11.578125 -13.984375 C 10.859375 -14.328125 10.128906 -14.5 9.390625 -14.5 C 8.648438 -14.5 7.921875 -14.328125 7.203125 -13.984375 C 6.484375 -13.648438 5.878906 -13.125 5.390625 -12.40625 C 4.910156 -11.6875 4.640625 -10.789062 4.578125 -9.71875 Z M 14.234375 -9.71875 "/></g></g></g><g fill="#000000" fill-opacity="1"><g transform="translate(196.177404, 197.393201)"><g><path d="M 12.40625 0.328125 C 10.851562 0.328125 9.359375 0 7.921875 -0.65625 C 6.484375 -1.3125 5.304688 -2.304688 4.390625 -3.640625 C 3.472656 -4.984375 3.015625 -6.628906 3.015625 -8.578125 L 3.015625 -21.5 C 3.015625 -21.914062 3.15625 -22.269531 3.4375 -22.5625 C 3.71875 -22.851562 4.066406 -23 4.484375 -23 C 4.898438 -23 5.253906 -22.851562 5.546875 -22.5625 C 5.835938 -22.269531 5.984375 -21.914062 5.984375 -21.5 L 5.984375 -8.46875 C 5.984375 -7.164062 6.28125 -6.054688 6.875 -5.140625 C 7.476562 -4.222656 8.269531 -3.535156 9.25 -3.078125 C 10.238281 -2.617188 11.289062 -2.390625 12.40625 -2.390625 C 13.507812 -2.390625 14.550781 -2.617188 15.53125 -3.078125 C 16.519531 -3.535156 17.3125 -4.222656 17.90625 -5.140625 C 18.507812 -6.054688 18.8125 -7.164062 18.8125 -8.46875 L 18.8125 -21.5 C 18.8125 -21.914062 18.953125 -22.269531 19.234375 -22.5625 C 19.515625 -22.851562 19.863281 -23 20.28125 -23 C 20.695312 -23 21.050781 -22.851562 21.34375 -22.5625 C 21.644531 -22.269531 21.796875 -21.914062 21.796875 -21.5 L 21.796875 -8.578125 C 21.796875 -6.628906 21.335938 -4.984375 20.421875 -3.640625 C 19.503906 -2.304688 18.320312 -1.3125 16.875 -0.65625 C 15.4375 0 13.945312 0.328125 12.40625 0.328125 Z M 12.40625 0.328125 "/></g></g></g><g fill="#000000" fill-opacity="1"><g transform="translate(220.97412, 197.393201)"><g><path d="M 4.0625 7.6875 C 3.644531 7.6875 3.289062 7.539062 3 7.25 C 2.71875 6.957031 2.578125 6.601562 2.578125 6.1875 L 2.578125 -15.375 C 2.578125 -15.789062 2.71875 -16.140625 3 -16.421875 C 3.289062 -16.703125 3.644531 -16.84375 4.0625 -16.84375 C 4.46875 -16.84375 4.816406 -16.703125 5.109375 -16.421875 C 5.410156 -16.140625 5.5625 -15.789062 5.5625 -15.375 L 5.5625 -14.53125 C 7.15625 -16.1875 9.019531 -17.015625 11.15625 -17.015625 C 12.507812 -17.015625 13.789062 -16.671875 15 -15.984375 C 16.207031 -15.296875 17.1875 -14.289062 17.9375 -12.96875 C 18.695312 -11.65625 19.078125 -10.113281 19.078125 -8.34375 C 19.078125 -6.570312 18.695312 -5.023438 17.9375 -3.703125 C 17.1875 -2.390625 16.207031 -1.390625 15 -0.703125 C 13.789062 -0.015625 12.507812 0.328125 11.15625 0.328125 C 9.019531 0.328125 7.15625 -0.5 5.5625 -2.15625 L 5.5625 6.1875 C 5.5625 6.625 5.421875 6.984375 5.140625 7.265625 C 4.859375 7.546875 4.5 7.6875 4.0625 7.6875 Z M 10.734375 -2.453125 C 12.347656 -2.453125 13.644531 -2.960938 14.625 -3.984375 C 15.601562 -5.015625 16.09375 -6.46875 16.09375 -8.34375 C 16.09375 -10.21875 15.601562 -11.664062 14.625 -12.6875 C 13.644531 -13.71875 12.347656 -14.234375 10.734375 -14.234375 C 9.734375 -14.234375 8.789062 -14.007812 7.90625 -13.5625 C 7.019531 -13.113281 6.238281 -12.519531 5.5625 -11.78125 L 5.5625 -4.90625 C 6.238281 -4.164062 7.019531 -3.570312 7.90625 -3.125 C 8.789062 -2.675781 9.734375 -2.453125 10.734375 -2.453125 Z M 10.734375 -2.453125 "/></g></g></g><g fill="#000000" fill-opacity="1"><g transform="translate(241.616248, 197.393201)"><g/></g></g><g fill="#000000" fill-opacity="1"><g transform="translate(250.121719, 197.393201)"><g><path d="M 3.109375 0.15625 C 2.671875 0.15625 2.316406 0.015625 2.046875 -0.265625 C 1.773438 -0.546875 1.640625 -0.894531 1.640625 -1.3125 C 1.640625 -1.488281 1.691406 -1.707031 1.796875 -1.96875 L 10.140625 -21.65625 C 10.316406 -22.050781 10.5625 -22.375 10.875 -22.625 C 11.195312 -22.875 11.585938 -23 12.046875 -23 L 12.375 -23 C 12.832031 -23 13.21875 -22.875 13.53125 -22.625 C 13.84375 -22.375 14.085938 -22.050781 14.265625 -21.65625 L 22.609375 -1.96875 C 22.710938 -1.707031 22.765625 -1.488281 22.765625 -1.3125 C 22.765625 -0.894531 22.628906 -0.546875 22.359375 -0.265625 C 22.085938 0.015625 21.734375 0.15625 21.296875 0.15625 C 20.992188 0.15625 20.71875 0.078125 20.46875 -0.078125 C 20.21875 -0.242188 20.023438 -0.46875 19.890625 -0.75 L 17.765625 -5.859375 L 6.640625 -5.859375 L 4.515625 -0.75 C 4.378906 -0.46875 4.1875 -0.242188 3.9375 -0.078125 C 3.6875 0.078125 3.410156 0.15625 3.109375 0.15625 Z M 7.78125 -8.578125 L 16.625 -8.578125 L 12.203125 -19.203125 Z M 7.78125 -8.578125 "/></g></g></g><g fill="#000000" fill-opacity="1"><g transform="translate(274.525877, 197.393201)"><g><path d="M 4.640625 0.15625 C 4.234375 0.15625 3.882812 0.015625 3.59375 -0.265625 C 3.3125 -0.546875 3.171875 -0.894531 3.171875 -1.3125 L 3.171875 -21.5 C 3.171875 -21.914062 3.3125 -22.269531 3.59375 -22.5625 C 3.882812 -22.851562 4.234375 -23 4.640625 -23 C 5.054688 -23 5.410156 -22.851562 5.703125 -22.5625 C 6.003906 -22.269531 6.15625 -21.914062 6.15625 -21.5 L 6.15625 -1.3125 C 6.15625 -0.894531 6.003906 -0.546875 5.703125 -0.265625 C 5.410156 0.015625 5.054688 0.15625 4.640625 0.15625 Z M 4.640625 0.15625 "/></g></g></g><g clip-path="url(#d7440b593a)"><g clip-path="url(#5243455a9b)"><path fill="url(#2df08d4bff)" d="M 63.53125 163.644531 L 63.53125 211.355469 L 108.992188 211.355469 L 108.992188 163.644531 Z M 63.53125 163.644531 " fill-rule="nonzero"/></g></g><path stroke-linecap="butt" transform="matrix(0.713972, -0.000000000000001771, 0.000000000000001771, 0.713972, 249.525281, 204.08426)" fill="none" stroke-linejoin="miter" d="M -0.00258191 2.502665 L 45.774529 2.502665 " stroke="url(#ee074b72ed)" stroke-width="5" stroke-miterlimit="4"/></svg>